HIERARCHY
ROOT Hips
{
  OFFSET 7.921 22.906 -213.413
  CHANNELS 6 Xposition Yposition Zposition Zrotation Xrotation Yrotation
  JOINT LeftUpLeg
  {
    OFFSET 6.513 -5.183 3.652
    CHANNELS 6 Xposition Yposition Zposition Zrotation Xrotation Yrotation
    JOINT LeftLeg
    {
      OFFSET -0.000 -45.417 0.000
      CHANNELS 6 Xposition Yposition Zposition Zrotation Xrotation Yrotation
      JOINT LeftFoot
      {
        OFFSET -0.000 -38.754 -0.000
        CHANNELS 6 Xposition Yposition Zposition Zrotation Xrotation Yrotation
        End Site
        {
          OFFSET 0.000 -8.005 4.622
        }
      }
    }
  }
  JOINT RightUpLeg
  {
    OFFSET -6.447 -5.014 4.810
    CHANNELS 6 Xposition Yposition Zposition Zrotation Xrotation Yrotation
    JOINT RightLeg
    {
      OFFSET -0.000 -44.945 0.000
      CHANNELS 6 Xposition Yposition Zposition Zrotation Xrotation Yrotation
      JOINT RightFoot
      {
        OFFSET -0.000 -37.567 -0.000
        CHANNELS 6 Xposition Yposition Zposition Zrotation Xrotation Yrotation
        End Site
        {
          OFFSET 0.000 -8.116 4.686
        }
      }
    }
  }
  JOINT Spine
  {
    OFFSET 0.000 4.876 -4.876
    CHANNELS 6 Xposition Yposition Zposition Zrotation Xrotation Yrotation
    JOINT LeftShoulder
    {
      OFFSET -0.000 35.244 0.000
      CHANNELS 6 Xposition Yposition Zposition Zrotation Xrotation Yrotation
      JOINT LeftArm
      {
        OFFSET 17.486 0.000 -0.000
        CHANNELS 6 Xposition Yposition Zposition Zrotation Xrotation Yrotation
        JOINT LeftForeArm
        {
          OFFSET 21.318 0.000 0.000
          CHANNELS 6 Xposition Yposition Zposition Zrotation Xrotation Yrotation
          JOINT LeftHand
          {
            OFFSET 26.813 -0.000 -0.000
            CHANNELS 6 Xposition Yposition Zposition Zrotation Xrotation Yrotation
            JOINT LeftHandThumb1
            {
            OFFSET 4.970 -0.620 3.390
            CHANNELS 6 Xposition Yposition Zposition Zrotation Xrotation Yrotation
              JOINT LeftHandThumb2
              {
              OFFSET 2.150 -0.000 0.000
              CHANNELS 6 Xposition Yposition Zposition Zrotation Xrotation Yrotation
                JOINT LeftHandThumb3
                {
                OFFSET 2.200 -0.000 0.000
                CHANNELS 6 Xposition Yposition Zposition Zrotation Xrotation Yrotation
                  JOINT LeftHandThumb4
                  {
                  OFFSET 1.700 -0.000 0.000
                  CHANNELS 6 Xposition Yposition Zposition Zrotation Xrotation Yrotation
                  }
                }
              }
            }
            JOINT LeftHandIndex1
            {
            OFFSET 8.730 0.680 2.070
            CHANNELS 6 Xposition Yposition Zposition Zrotation Xrotation Yrotation
              JOINT LeftHandIndex2
              {
              OFFSET 2.670 -0.000 0.000
              CHANNELS 6 Xposition Yposition Zposition Zrotation Xrotation Yrotation
                JOINT LeftHandIndex3
                {
                OFFSET 2.130 -0.000 0.000
                CHANNELS 6 Xposition Yposition Zposition Zrotation Xrotation Yrotation
                  JOINT LeftHandIndex4
                  {
                  OFFSET 1.800 -0.000 0.000
                  CHANNELS 6 Xposition Yposition Zposition Zrotation Xrotation Yrotation
                  }
                }
              }
            }
            JOINT LeftHandMiddle1
            {
            OFFSET 9.220 0.670 0.550
            CHANNELS 6 Xposition Yposition Zposition Zrotation Xrotation Yrotation
              JOINT LeftHandMiddle2
              {
              OFFSET 2.660 -0.000 0.000
              CHANNELS 6 Xposition Yposition Zposition Zrotation Xrotation Yrotation
                JOINT LeftHandMiddle3
                {
                OFFSET 2.280 -0.000 0.000
                CHANNELS 6 Xposition Yposition Zposition Zrotation Xrotation Yrotation
                  JOINT LeftHandMiddle4
                  {
                  OFFSET 1.500 -0.000 0.000
                  CHANNELS 6 Xposition Yposition Zposition Zrotation Xrotation Yrotation
                  }
                }
              }
            }
            JOINT LeftHandRing1
            {
            OFFSET 9.250 0.670 -1.130
            CHANNELS 6 Xposition Yposition Zposition Zrotation Xrotation Yrotation
              JOINT LeftHandRing2
              {
              OFFSET 2.470 -0.000 0.000
              CHANNELS 6 Xposition Yposition Zposition Zrotation Xrotation Yrotation
                JOINT LeftHandRing3
                {
                OFFSET 2.210 -0.000 0.000
                CHANNELS 6 Xposition Yposition Zposition Zrotation Xrotation Yrotation
                  JOINT LeftHandRing4
                  {
                  OFFSET 1.800 -0.000 0.000
                  CHANNELS 6 Xposition Yposition Zposition Zrotation Xrotation Yrotation
                  }
                }
              }
            }
            JOINT LeftHandPinky1
            {
            OFFSET 9.350 0.660 -2.720
            CHANNELS 6 Xposition Yposition Zposition Zrotation Xrotation Yrotation
              JOINT LeftHandPinky2
              {
              OFFSET 1.630 -0.000 0.000
              CHANNELS 6 Xposition Yposition Zposition Zrotation Xrotation Yrotation
                JOINT LeftHandPinky3
                {
                OFFSET 1.710 -0.000 0.000
                CHANNELS 6 Xposition Yposition Zposition Zrotation Xrotation Yrotation
                  JOINT LeftHandPinky4
                  {
                  OFFSET 1.800 -0.000 0.000
                  CHANNELS 6 Xposition Yposition Zposition Zrotation Xrotation Yrotation
                  }
                }
              }
            }
          }
        }
      }
    }
    JOINT RightShoulder
    {
      OFFSET -0.000 35.244 0.000
      CHANNELS 6 Xposition Yposition Zposition Zrotation Xrotation Yrotation
      JOINT RightArm
      {
        OFFSET -20.205 0.000 -0.000
        CHANNELS 6 Xposition Yposition Zposition Zrotation Xrotation Yrotation
        JOINT RightForeArm
        {
          OFFSET -20.380 0.000 0.000
          CHANNELS 6 Xposition Yposition Zposition Zrotation Xrotation Yrotation
          JOINT RightHand
          {
            OFFSET -25.411 0.000 -0.000
            CHANNELS 6 Xposition Yposition Zposition Zrotation Xrotation Yrotation
            JOINT RightHandThumb1
            {
            OFFSET -4.970 -0.620 3.390
            CHANNELS 6 Xposition Yposition Zposition Zrotation Xrotation Yrotation
              JOINT RightHandThumb2
              {
              OFFSET -2.150 0.000 0.000
              CHANNELS 6 Xposition Yposition Zposition Zrotation Xrotation Yrotation
                JOINT RightHandThumb3
                {
                OFFSET -2.200 0.000 0.000
                CHANNELS 6 Xposition Yposition Zposition Zrotation Xrotation Yrotation
                  JOINT RightHandThumb4
                  {
                  OFFSET -1.700 0.000 0.000
                  CHANNELS 6 Xposition Yposition Zposition Zrotation Xrotation Yrotation
                  }
                }
              }
            }
            JOINT RightHandIndex1
            {
            OFFSET -8.730 0.680 2.070
            CHANNELS 6 Xposition Yposition Zposition Zrotation Xrotation Yrotation
              JOINT RightHandIndex2
              {
              OFFSET -2.670 0.000 0.000
              CHANNELS 6 Xposition Yposition Zposition Zrotation Xrotation Yrotation
                JOINT RightHandIndex3
                {
                OFFSET -2.130 0.000 0.000
                CHANNELS 6 Xposition Yposition Zposition Zrotation Xrotation Yrotation
                  JOINT RightHandIndex4
                  {
                  OFFSET -1.800 0.000 0.000
                  CHANNELS 6 Xposition Yposition Zposition Zrotation Xrotation Yrotation
                  }
                }
              }
            }
            JOINT RightHandMiddle1
            {
            OFFSET -9.220 0.670 0.550
            CHANNELS 6 Xposition Yposition Zposition Zrotation Xrotation Yrotation
              JOINT RightHandMiddle2
              {
              OFFSET -2.660 0.000 0.000
              CHANNELS 6 Xposition Yposition Zposition Zrotation Xrotation Yrotation
                JOINT RightHandMiddle3
                {
                OFFSET -2.280 0.000 0.000
                CHANNELS 6 Xposition Yposition Zposition Zrotation Xrotation Yrotation
                  JOINT RightHandMiddle4
                  {
                  OFFSET -1.500 0.000 0.000
                  CHANNELS 6 Xposition Yposition Zposition Zrotation Xrotation Yrotation
                  }
                }
              }
            }
            JOINT RightHandRing1
            {
            OFFSET -9.250 0.670 -1.130
            CHANNELS 6 Xposition Yposition Zposition Zrotation Xrotation Yrotation
              JOINT RightHandRing2
              {
              OFFSET -2.470 0.000 0.000
              CHANNELS 6 Xposition Yposition Zposition Zrotation Xrotation Yrotation
                JOINT RightHandRing3
                {
                OFFSET -2.210 0.000 0.000
                CHANNELS 6 Xposition Yposition Zposition Zrotation Xrotation Yrotation
                  JOINT RightHandRing4
                  {
                  OFFSET -1.800 0.000 0.000
                  CHANNELS 6 Xposition Yposition Zposition Zrotation Xrotation Yrotation
                  }
                }
              }
            }
            JOINT RightHandPinky1
            {
            OFFSET -9.350 0.660 -2.720
            CHANNELS 6 Xposition Yposition Zposition Zrotation Xrotation Yrotation
              JOINT RightHandPinky2
              {
              OFFSET -1.630 0.000 0.000
              CHANNELS 6 Xposition Yposition Zposition Zrotation Xrotation Yrotation
                JOINT RightHandPinky3
                {
                OFFSET -1.710 0.000 0.000
                CHANNELS 6 Xposition Yposition Zposition Zrotation Xrotation Yrotation
                  JOINT RightHandPinky4
                  {
                  OFFSET -1.800 0.000 0.000
                  CHANNELS 6 Xposition Yposition Zposition Zrotation Xrotation Yrotation
                  }
                }
              }
            }
          }
        }
      }
    }
    JOINT Neck
    {
      OFFSET -0.000 35.244 0.000
      CHANNELS 6 Xposition Yposition Zposition Zrotation Xrotation Yrotation
      JOINT Head
      {
        OFFSET -0.000 15.534 -0.000
        CHANNELS 6 Xposition Yposition Zposition Zrotation Xrotation Yrotation
        End Site
        {
          OFFSET -0.000 0.062 -0.000
        }
      }
    }
  }
}
MOTION
Frames:	6
Frame Time:	0.0333333
10.5386 24.1047 -213.901 11.3418 44.2273 -23.4319 6.84842 -4.81203 4.40392 9.88007 -49.1655 11.419 -2.98023e-06 -46.7364 0 -5.51989 13.1114 -5.25976e-06 -2.98023e-06 -40.1896 2.38419e-05 -1.12508 -16.8245 -1.14242 -6.51825 -4.50447 5.34124 7.45276 -71.1833 9.58795 -5.96046e-06 -45.1096 0 -3.2732 -8.26044 -0.470771 0 -40.1382 0 -4.61867 -9.05566 -4.04404 -5.96046e-06 4.78477 -4.78477 1.15165 -43.5361 0.8941 5.96046e-06 35.2446 -2.38419e-05 -36.5184 1.28066e-05 4.63237 17.7001 -1.49012e-06 -2.38419e-05 -25.8239 30.9556 3.74994 20.6218 1.19209e-05 2.38419e-05 1.46724e-05 4.06036e-06 -117.991 27.5759 -1.19209e-05 -5.96046e-06 -4.77792 -0.589673 8.22235 0.0062 0.0497 0.0339 0 0 0 0 0.0215 0 0 0 0 0 0.022 0 0 0 0 0 0.017 0 0 0 0 -0.0068 0.0873 0.0207 0 0 0 0 0.0267 0 0 0 0 0 0.0213 0 0 0 0 0 0.018 0 0 0 0 -0.0067 0.0922 0.0055 0 0 0 0 0.0266 0 0 0 0 0 0.0228 0 0 0 0 0 0.015 0 0 0 0 -0.0067 0.0925 -0.0113 0 0 0 0 0.0247 0 0 0 0 0 0.0221 0 0 0 0 0 0.018 0 0 0 0 -0.0066 0.0935 -0.0272 0 0 0 0 0.0163 0 0 0 0 0 0.0171 0 0 0 0 0 0.018 0 0 0 0 5.96046e-06 35.2446 -2.38419e-05 36.2206 -1.06722e-05 -3.96771 -20.6593 -5.96046e-06 0 47.7776 16.8374 -4.66689 -22.0603 -1.49012e-06 0 -8.42765e-07 9.10752e-06 100.574 -23.6546 4.47035e-06 -1.19209e-05 -16.5971 0.0268149 -13.8863 -0.0062 0.0497 0.0339 45 0 0 0 0.0215 0 0 -45 0 0 0.022 0 0 -45 0 0 0.017 0 0 0 0 0.0068 0.0873 0.0207 45 0 0 0 0.0267 0 80 0 0 0 0.0213 0 90 0 0 0 0.018 0 0 0 0 0.0067 0.0922 0.0055 45 0 0 0 0.0266 0 80 0 0 0 0.0228 0 90 0 0 0 0.015 0 0 0 0 0.0067 0.0925 -0.0113 45 0 0 0 0.0247 0 80 0 0 0 0.0221 0 90 0 0 0 0.018 0 0 0 0 0.0066 0.0935 -0.0272 45 0 0 0 0.0163 0 80 0 0 0 0.0171 0 90 0 0 0 0.018 0 0 0 0 5.96046e-06 35.2446 -2.38419e-05 23.5991 4.4087 -1.92341 0 15.1404 -4.76837e-05 1.43407e-05 -9.60495e-06 -1.70755e-06 
10.4962 23.9733 -213.445 10.9584 44.4525 -22.8551 6.87234 -4.77012 4.49566 9.43391 -48.1514 10.5602 -8.9407e-06 -46.6332 -2.38419e-05 -5.94201 12.5354 0 -2.98023e-06 -40.5128 -2.38419e-05 1.05013 -14.531 0.442858 -6.53992 -4.55066 5.34571 5.22075 -72.0802 6.97112 -8.9407e-06 -45.4203 0 -3.54916 -7.54775 -0.466777 0 -40.4323 -2.38419e-05 -3.29791 -7.72895 -2.90512 0 4.78745 -4.78746 1.14923 -43.9262 0.87307 0 35.2446 2.38419e-05 -36.3436 1.45142e-05 4.62601 17.6616 -1.19209e-05 2.38419e-05 -25.366 31.6035 3.87698 20.5423 -2.38419e-05 1.19209e-05 1.6333e-05 -3.97992e-06 -117.389 27.046 3.57628e-05 1.78814e-05 5.99716 0.0704361 3.77062 0.0062 0.0497 0.0339 0 0 0 0 0.0215 0 0 0 0 0 0.022 0 0 0 0 0 0.017 0 0 0 0 -0.0068 0.0873 0.0207 0 0 0 0 0.0267 0 0 0 0 0 0.0213 0 0 0 0 0 0.018 0 0 0 0 -0.0067 0.0922 0.0055 0 0 0 0 0.0266 0 0 0 0 0 0.0228 0 0 0 0 0 0.015 0 0 0 0 -0.0067 0.0925 -0.0113 0 0 0 0 0.0247 0 0 0 0 0 0.0221 0 0 0 0 0 0.018 0 0 0 0 -0.0066 0.0935 -0.0272 0 0 0 0 0.0163 0 0 0 0 0 0.0171 0 0 0 0 0 0.018 0 0 0 0 0 35.2446 2.38419e-05 36.1781 -2.13443e-06 -3.95124 -20.6717 1.19209e-05 -2.38419e-05 47.901 13.8723 -6.14302 -21.7881 -2.98023e-06 2.38419e-05 -7.88841e-07 8.81374e-06 100.229 -23.1139 0 -1.19209e-05 -11.3068 -0.407918 -4.56524 -0.0062 0.0497 0.0339 45 0 0 0 0.0215 0 0 -45 0 0 0.022 0 0 -45 0 0 0.017 0 0 0 0 0.0068 0.0873 0.0207 45 0 0 0 0.0267 0 80 0 0 0 0.0213 0 90 0 0 0 0.018 0 0 0 0 0.0067 0.0922 0.0055 45 0 0 0 0.0266 0 80 0 0 0 0.0228 0 90 0 0 0 0.015 0 0 0 0 0.0067 0.0925 -0.0113 45 0 0 0 0.0247 0 80 0 0 0 0.0221 0 90 0 0 0 0.018 0 0 0 0 0.0066 0.0935 -0.0272 45 0 0 0 0.0163 0 80 0 0 0 0.0171 0 90 0 0 0 0.018 0 0 0 0 0 35.2446 2.38419e-05 24.1536 4.55134 -2.03801 -1.78814e-05 15.1295 0 1.38805e-05 -1.08856e-05 1.70755e-06 
10.4318 23.8939 -213.12 10.7047 44.5491 -22.3664 6.89997 -4.77043 4.55017 8.84456 -47.4227 9.52666 -2.98023e-06 -46.5943 2.38419e-05 -5.92955 11.8415 1.22095 -1.49012e-06 -40.6326 4.76837e-05 2.2998 -12.924 1.31717 -6.57936 -4.55602 5.35947 3.76974 -72.4332 5.49735 0 -45.5021 0 -3.24484 -5.9358 -0.335913 0 -40.1719 0 -2.73071 -7.83134 -2.42101 5.96046e-06 4.78804 -4.78804 1.1649 -44.1304 0.871517 0 35.2446 2.38419e-05 -36.1582 6.83019e-06 4.72264 17.713 -1.04308e-05 -7.15256e-05 -25.3525 32.0678 4.09915 20.4868 2.38419e-05 1.19209e-05 1.63504e-05 -3.94622e-06 -117.138 26.8212 -2.38419e-05 0 8.59647 0.0778312 1.2352 0.0062 0.0497 0.0339 0 0 0 0 0.0215 0 0 0 0 0 0.022 0 0 0 0 0 0.017 0 0 0 0 -0.0068 0.0873 0.0207 0 0 0 0 0.0267 0 0 0 0 0 0.0213 0 0 0 0 0 0.018 0 0 0 0 -0.0067 0.0922 0.0055 0 0 0 0 0.0266 0 0 0 0 0 0.0228 0 0 0 0 0 0.015 0 0 0 0 -0.0067 0.0925 -0.0113 0 0 0 0 0.0247 0 0 0 0 0 0.0221 0 0 0 0 0 0.018 0 0 0 0 -0.0066 0.0935 -0.0272 0 0 0 0 0.0163 0 0 0 0 0 0.0171 0 0 0 0 0 0.018 0 0 0 0 0 35.2446 2.38419e-05 36.1012 -2.98821e-06 -4.05454 -20.6256 1.19209e-05 2.38419e-05 47.6538 12.4939 -6.14733 -21.7288 2.98023e-06 -4.76837e-05 -7.05774e-07 8.3403e-06 99.6739 -22.856 2.98023e-06 -2.98023e-06 -2.93713 -0.729377 5.31949 -0.0062 0.0497 0.0339 45 0 0 0 0.0215 0 0 -45 0 0 0.022 0 0 -45 0 0 0.017 0 0 0 0 0.0068 0.0873 0.0207 45 0 0 0 0.0267 0 80 0 0 0 0.0213 0 90 0 0 0 0.018 0 0 0 0 0.0067 0.0922 0.0055 45 0 0 0 0.0266 0 80 0 0 0 0.0228 0 90 0 0 0 0.015 0 0 0 0 0.0067 0.0925 -0.0113 45 0 0 0 0.0247 0 80 0 0 0 0.0221 0 90 0 0 0 0.018 0 0 0 0 0.0066 0.0935 -0.0272 45 0 0 0 0.0163 0 80 0 0 0 0.0171 0 90 0 0 0 0.018 0 0 0 0 0 35.2446 2.38419e-05 23.9005 4.49047 -1.98712 -1.78814e-05 15.1212 -4.76837e-05 1.61183e-05 -1.10724e-05 0 
10.2847 23.9416 -212.698 10.5994 44.4369 -21.999 6.90818 -4.75204 4.58781 8.19047 -46.4335 8.72959 -5.96046e-06 -46.7075 4.76837e-05 -5.75699 10.7509 1.07741 1.49012e-06 -40.7009 -2.38419e-05 3.4152 -11.2602 2.05711 -6.6047 -4.57137 5.35009 2.58156 -72.3044 4.16939 2.98023e-06 -45.6569 -2.38419e-05 -2.35159 -3.36703 -0.13819 -5.96046e-06 -39.492 1.19209e-05 -1.88032 -7.06462 -1.76169 0 4.79479 -4.79479 1.19348 -44.2209 0.884756 0 35.2446 4.76837e-05 -36.1279 1.28066e-05 4.79078 17.6849 1.3411e-05 0 -25.646 32.2661 6.02878 20.3145 0 1.19209e-05 -1.11801e-05 1.02238e-05 -117.273 26.8399 1.19209e-05 -5.96046e-06 10.5788 0.0628746 -0.856826 0.0062 0.0497 0.0339 0 0 0 0 0.0215 0 0 0 0 0 0.022 0 0 0 0 0 0.017 0 0 0 0 -0.0068 0.0873 0.0207 0 0 0 0 0.0267 0 0 0 0 0 0.0213 0 0 0 0 0 0.018 0 0 0 0 -0.0067 0.0922 0.0055 0 0 0 0 0.0266 0 0 0 0 0 0.0228 0 0 0 0 0 0.015 0 0 0 0 -0.0067 0.0925 -0.0113 0 0 0 0 0.0247 0 0 0 0 0 0.0221 0 0 0 0 0 0.018 0 0 0 0 -0.0066 0.0935 -0.0272 0 0 0 0 0.0163 0 0 0 0 0 0.0171 0 0 0 0 0 0.018 0 0 0 0 0 35.2446 4.76837e-05 35.8811 -8.96462e-06 -4.11979 -20.5591 1.78814e-05 -7.15256e-05 48.051 12.7641 -6.43762 -21.7691 5.96046e-06 0 -1.45311e-05 9.2562e-06 100.748 -23.5245 -5.96046e-06 -4.47035e-06 -4.06359 -0.537968 5.34484 -0.0062 0.0497 0.0339 45 0 0 0 0.0215 0 0 -45 0 0 0.022 0 0 -45 0 0 0.017 0 0 0 0 0.0068 0.0873 0.0207 45 0 0 0 0.0267 0 80 0 0 0 0.0213 0 90 0 0 0 0.018 0 0 0 0 0.0067 0.0922 0.0055 45 0 0 0 0.0266 0 80 0 0 0 0.0228 0 90 0 0 0 0.015 0 0 0 0 0.0067 0.0925 -0.0113 45 0 0 0 0.0247 0 80 0 0 0 0.0221 0 90 0 0 0 0.018 0 0 0 0 0.0066 0.0935 -0.0272 45 0 0 0 0.0163 0 80 0 0 0 0.0171 0 90 0 0 0 0.018 0 0 0 0 0 35.2446 4.76837e-05 23.0999 4.52732 -1.92831 0 15.1744 -9.53674e-05 1.03653e-05 -7.6306e-06 -3.41509e-06 
9.91887 24.1014 -211.827 9.92061 43.7543 -20.5936 6.80483 -4.69701 4.55114 7.96781 -45.7403 8.90915 -2.98023e-06 -46.8956 0 -6.1293 12.2309 3.49441e-06 -7.45058e-06 -40.859 0 4.84486 -8.83364 2.93352 -6.55463 -4.51248 5.26519 1.68698 -69.9877 3.37514 -8.9407e-06 -46.0431 3.57628e-05 -0.116707 1.19662 0.00243464 -2.98023e-06 -38.3169 -3.57628e-05 -0.436741 -4.55153 -0.741047 5.96046e-06 4.84033 -4.84033 1.22598 -43.8502 0.923502 -8.9407e-06 35.2446 0 -36.0112 1.19528e-05 4.52123 17.3885 1.04308e-05 4.76837e-05 -26.5843 32.4618 9.95413 20.3536 -2.38419e-05 0 -1.00577e-06 -4.04859e-06 -117.903 27.089 1.19209e-05 0 -8.6952 -0.238888 -4.99049 0.0062 0.0497 0.0339 0 0 0 0 0.0215 0 0 0 0 0 0.022 0 0 0 0 0 0.017 0 0 0 0 -0.0068 0.0873 0.0207 0 0 0 0 0.0267 0 0 0 0 0 0.0213 0 0 0 0 0 0.018 0 0 0 0 -0.0067 0.0922 0.0055 0 0 0 0 0.0266 0 0 0 0 0 0.0228 0 0 0 0 0 0.015 0 0 0 0 -0.0067 0.0925 -0.0113 0 0 0 0 0.0247 0 0 0 0 0 0.0221 0 0 0 0 0 0.018 0 0 0 0 -0.0066 0.0935 -0.0272 0 0 0 0 0.0163 0 0 0 0 0 0.0171 0 0 0 0 0 0.018 0 0 0 0 -8.9407e-06 35.2446 0 35.6507 -1.70755e-06 -3.90995 -20.1018 0 0 47.2418 14.1548 -5.36212 -22.0419 0 7.15256e-05 -8.64922e-07 7.84079e-06 102.59 -23.7234 2.98023e-06 2.98023e-06 -7.37256 -0.538846 0.487526 -0.0062 0.0497 0.0339 45 0 0 0 0.0215 0 0 -45 0 0 0.022 0 0 -45 0 0 0.017 0 0 0 0 0.0068 0.0873 0.0207 45 0 0 0 0.0267 0 80 0 0 0 0.0213 0 90 0 0 0 0.018 0 0 0 0 0.0067 0.0922 0.0055 45 0 0 0 0.0266 0 80 0 0 0 0.0228 0 90 0 0 0 0.015 0 0 0 0 0.0067 0.0925 -0.0113 45 0 0 0 0.0247 0 80 0 0 0 0.0221 0 90 0 0 0 0.018 0 0 0 0 0.0066 0.0935 -0.0272 45 0 0 0 0.0163 0 80 0 0 0 0.0171 0 90 0 0 0 0.018 0 0 0 0 -8.9407e-06 35.2446 0 22.1053 4.81333 -1.95195 2.98023e-06 15.588 -7.15256e-05 1.05254e-05 -1.0939e-05 -1.70755e-06 
9.91887 24.1014 -211.827 9.92061 43.7543 -20.5936 6.80483 -4.69701 4.55114 7.96781 -45.7403 8.90915 -2.98023e-06 -46.8956 0 -6.1293 12.2309 3.49441e-06 -7.45058e-06 -40.859 0 4.84486 -8.83364 2.93352 -6.55463 -4.51248 5.26519 1.68698 -69.9877 3.37514 -8.9407e-06 -46.0431 3.57628e-05 -0.116707 1.19662 0.00243464 -2.98023e-06 -38.3169 -3.57628e-05 -0.436741 -4.55153 -0.741047 5.96046e-06 4.84033 -4.84033 1.22598 -43.8502 0.923502 -8.9407e-06 35.2446 0 -36.0112 1.19528e-05 4.52123 17.3885 1.04308e-05 4.76837e-05 -26.5843 32.4618 9.95413 20.3536 -2.38419e-05 0 -1.00577e-06 -4.04859e-06 -117.903 27.089 1.19209e-05 0 -8.6952 -0.238888 -4.99049 0.0062 0.0497 0.0339 0 0 0 0 0.0215 0 0 0 0 0 0.022 0 0 0 0 0 0.017 0 0 0 0 -0.0068 0.0873 0.0207 0 0 0 0 0.0267 0 0 0 0 0 0.0213 0 0 0 0 0 0.018 0 0 0 0 -0.0067 0.0922 0.0055 0 0 0 0 0.0266 0 0 0 0 0 0.0228 0 0 0 0 0 0.015 0 0 0 0 -0.0067 0.0925 -0.0113 0 0 0 0 0.0247 0 0 0 0 0 0.0221 0 0 0 0 0 0.018 0 0 0 0 -0.0066 0.0935 -0.0272 0 0 0 0 0.0163 0 0 0 0 0 0.0171 0 0 0 0 0 0.018 0 0 0 0 -8.9407e-06 35.2446 0 35.6507 -1.70755e-06 -3.90995 -20.1018 0 0 47.2418 14.1548 -5.36212 -22.0419 0 7.15256e-05 -8.64922e-07 7.84079e-06 102.59 -23.7234 2.98023e-06 2.98023e-06 -7.37256 -0.538846 0.487526 -0.0062 0.0497 0.0339 45 0 0 0 0.0215 0 0 -45 0 0 0.022 0 0 -45 0 0 0.017 0 0 0 0 0.0068 0.0873 0.0207 45 0 0 0 0.0267 0 80 0 0 0 0.0213 0 90 0 0 0 0.018 0 0 0 0 0.0067 0.0922 0.0055 45 0 0 0 0.0266 0 80 0 0 0 0.0228 0 90 0 0 0 0.015 0 0 0 0 0.0067 0.0925 -0.0113 45 0 0 0 0.0247 0 80 0 0 0 0.0221 0 90 0 0 0 0.018 0 0 0 0 0.0066 0.0935 -0.0272 45 0 0 0 0.0163 0 80 0 0 0 0.0171 0 90 0 0 0 0.018 0 0 0 0 -8.9407e-06 35.2446 0 22.1053 4.81333 -1.95195 2.98023e-06 15.588 -7.15256e-05 1.05254e-05 -1.0939e-05 -1.70755e-06 
